<svg width="16" height="12" viewBox="0 0 16 12" fill="none" xmlns="http://www.w3.org/2000/svg">
<path opacity="0.8" d="M15 0H1C0.734784 0 0.48043 0.105357 0.292893 0.292893C0.105357 0.48043 0 0.734784 0 1V11C0 11.2652 0.105357 11.5196 0.292893 11.7071C0.48043 11.8946 0.734784 12 1 12H15C15.2652 12 15.5196 11.8946 15.7071 11.7071C15.8946 11.5196 16 11.2652 16 11V1C16 0.734784 15.8946 0.48043 15.7071 0.292893C15.5196 0.105357 15.2652 0 15 0ZM14.23 11H1.83L5.33 7.38L4.61 6.685L1 10.42V1.76L7.215 7.945C7.40236 8.13125 7.65581 8.23579 7.92 8.23579C8.18419 8.23579 8.43764 8.13125 8.625 7.945L15 1.605V10.355L11.32 6.675L10.615 7.38L14.23 11ZM1.655 1H14.19L7.92 7.235L1.655 1Z" fill="#031A26"/>
</svg>
