<?xml version="1.0" encoding="UTF-8"?>
<svg id="Layer_1" xmlns="http://www.w3.org/2000/svg" version="1.1" viewBox="0 0 512 370.4">
  <!-- Generator: Adobe Illustrator 29.1.0, SVG Export Plug-In . SVG Version: 2.1.0 Build 142)  -->
  <defs>
    <style>
      .st0 {
        fill: #fff;
      }

      .st1 {
        fill: #1b3942;
      }
    </style>
  </defs>
  <g>
    <g>
      <g>
        <path class="st0" d="M315.7,87.8c1.5-.8,3.3-1,5.3-1.6-.1-1.2-.3-2.2-.4-3.2-1-6.7,5.5-12.3,12-10.3,3.1,1,5.1,4.3,4.2,7.2-.3,1-1.6,2-2.6,2.5-.5.2-2.1-.4-2.3-1-.3-.9,0-2.1.3-3.2.1-.6.7-1.1,1.1-1.8-1.6-1.8-3.2-1.5-4.9-.6-2.4,1.4-2.9,3.7-2.5,6.1.7,4.7,6.7,8.8,11.9,8.1.1-.8.1-1.8.4-2.6,1.2-4.5,1.7-9.2,3.7-13.3,11.9-23.8,40.6-27.2,56.5-15.5,6.1,4.5,9.8,4.3,15.8.2.1-.1.4,0,.7,0,1.2,4.5-.6,7.4-4.9,8.3-5.2,1-5.4,1.5-3.2,6.1,2.2,4.5,4.8,8.7,5,13.9.2,5.8.6,11.6.9,17.4.1,2.7.7,5.1,3.8,6.2.9-.7,1.8-1.5,2.7-2.2,2.6,1,2.7,2.6,1.3,4.5-2.1,2.9-6.2,3.4-9.2,1.1-1.1-.8-2.1-1.8-3.5-2.9-3.6,5.4-6.7,10.9-13.2,12.5-5.9,1.5-11.9,2.3-17.5-1.2,1.1-.7,2.3-1,3.5-1.1,4.4-.5,8.8-1.2,12.3-4.1,9.9-8.1,17-24.8,11.9-38.7-2.6-7.1-6.4-12.9-13.8-15.6-.9-.3-1.9-.4-2.8-.6-.1.3-.3.5-.4.8.7.7,1.2,1.6,2,2.1,3.4,2.4,5.6,5.6,7.5,9.3,6,11.7,4.6,23.5-4.1,33.2-5.1,5.7-11.1,9.7-19.2,8.9-5-.5-9.2-2.8-11.3-7.5-2.1-4.6-.8-9.1,2.1-13,2.8-3.7,7.9-3.4,9.7.6-.8.3-1.6.4-2.3.8-2.6,1.1-3.8,3.3-3.6,5.9.3,2.9,1.9,4.8,5,5,2.5.2,5.1-.3,8.2-.6-1.5-3-5.5-3.7-4.2-6.8,4.1-.8,7.8-1.5,11.4-2.4,1-.3,2.3-1,2.8-1.8,5.4-8,4.8-20.3-2.8-27.4-1-.9-2.4-1.3-4-2.1-1.3,7.7-3.8,13.7-11.7,15.1-3.5.6-6.4-.9-7.6-3.5,2.3-1.1,4.8-2,5.4-5,1-5.1-3-10.2-8.3-10.5-4.6-.3-11.4,3.7-12.6,7.4,1.5.6,3.1,1,4.5,1.9,2,1.2,2.3,3.9,1,5.6-1.3,1.7-3.2,1.7-5.2,0-2.1-1.7-4.3-1.9-5.8.3-1.6,2.4-3,5.2-3.4,8-.8,5.7.9,11.2,2.9,16.6.4,1,1.4,1.7,2.6,3.2.2-1.6.4-2.1.3-2.7-.7-4.3.7-7.8,3.1-11.2,3.2-4.4,9-4.2,12.5-8.5,1.2,6.4-1.9,12.7-7.4,15.9-2.2,1.3-4,2.8-4.5,5.2-1.3,5.9-.8,11.7,2.1,17.2.3.5.8.8,1.2,1.2,7.4-3,10.4-2.3,11.2,2.5-4.2,1.7-4.9,3.2-4.3,7.9.6,4.9.2,9.7-1.8,14.3-.4,1-.7,2.1-1.2,3.6,1.6,0,2.7.1,3.7,0,11.4-1.1,16.7,7.7,15.7,17.3-.2,1.9-.7,3.5-3,3.7-3.4-2,.4-3.5.3-5.5-.7-2.2-1.6-4.5-4.6-4.8-3.4,7.4-5,8.7-9.2,7,0-1.1.1-2.3.2-3.3-3-2.3-5.1-2.2-7.6.4-1.6,1.7-3,3.7-4.3,5.7-8.4,12.7-18.5,23.3-33.4,28.3l3.9-6.4c.7.1,1,.3,1.1.2.4-.2.9-.4,1.3-.6,4.8-2.5,8.8-5.9,12.2-10.1,7.9-9.8,13.9-20.7,16.1-33.2,2.1-11.7-1.5-22.4-6.2-32.9-4.5-9.9-11.8-16.7-21.3-21.4-3.5-1.7-7.2-3.3-11.4-5.1,1.6-1.2,2.9-2.4,4.4-3.1Z"/>
        <path class="st0" d="M314.3,205.9c7.6,1.3,13.5-3.6,20.1-7,0,3.2-3.2,5.3-1.5,8.8,4.3-4.6,8.5-8.7,8-16.1,1.9.6,3.3,1.1,5,1.7,2.8-2.5,4-7.4,9.5-8.6-.3,2.2-.3,3.8-.7,5.3-2.7,7.9-7.3,14.2-15.4,17.5-1,.4-1.8,1.4-2.6,2.1.2.4.5.8.7,1.2,2.9-1.2,5.7-2.5,8.6-3.6,10.2-3.8,16.7-10.7,19.1-21.5.7-3.2,2-6.5,5.5-8.3,2.9,4.4,0,9.2,1.5,13.7,8.3-8.9,14.1-18.7,14.2-32.2,2.4,1.6,4.1,2.7,5.7,3.8,2.8-4.8,1.7-16.8-1.2-19.7-1-1-2.5-1.7-3.7-2.5-.3.2-.5.4-.8.7,0,1.4,0,2.7-.1,4.1-.3,3.8-3,6.6-6.8,7-4.5.5-7.2-1.2-8.5-5.2-1.7-5.5,2.1-10.8,8.1-11.1,10.1-.5,17.8,6.3,17.9,16.5.1,13.4-5.4,24.9-13.3,35.1-3.9,5-9.2,8.8-13.8,13.2-7.6,7.1-16.8,11.1-27.1,12.2-9.5,1-19.1.8-28.5-2.1-1.6-.5-4-1.2-5.1-.5l4.8-5.2.5,1Z"/>
      </g>
      <g>
        <path class="st0" d="M211.5,87.8c-1.5-.8-3.3-1-5.3-1.6.1-1.2.3-2.2.4-3.2,1-6.7-5.5-12.3-12-10.3-3.1,1-5.1,4.3-4.2,7.2.3,1,1.6,2,2.6,2.5.5.2,2.1-.4,2.3-1,.3-.9,0-2.1-.3-3.2-.1-.6-.7-1.1-1.1-1.8,1.6-1.8,3.2-1.5,4.9-.6,2.4,1.4,2.9,3.7,2.5,6.1-.7,4.7-6.7,8.8-11.9,8.1-.1-.8-.1-1.8-.4-2.6-1.2-4.5-1.7-9.2-3.7-13.3-11.9-23.8-40.6-27.2-56.5-15.5-6.1,4.5-9.8,4.3-15.8.2-.1-.1-.4,0-.7,0-1.2,4.5.6,7.4,4.9,8.3,5.2,1,5.4,1.5,3.2,6.1-2.2,4.5-4.8,8.7-5,13.9-.2,5.8-.6,11.6-.9,17.4-.1,2.7-.7,5.1-3.8,6.2-.9-.7-1.8-1.5-2.7-2.2-2.6,1-2.7,2.6-1.3,4.5,2.1,2.9,6.2,3.4,9.2,1.1,1.1-.8,2.1-1.8,3.5-2.9,3.6,5.4,6.7,10.9,13.2,12.5,5.9,1.5,11.9,2.3,17.5-1.2-1.1-.7-2.3-1-3.5-1.1-4.4-.5-8.8-1.2-12.3-4.1-9.9-8.1-17-24.8-11.9-38.7,2.6-7.1,6.4-12.9,13.8-15.6.9-.3,1.9-.4,2.8-.6.1.3.3.5.4.8-.7.7-1.2,1.6-2,2.1-3.4,2.4-5.6,5.6-7.5,9.3-6,11.7-4.6,23.5,4.1,33.2,5.1,5.7,11.1,9.7,19.2,8.9,5-.5,9.2-2.8,11.3-7.5,2.1-4.6.8-9.1-2.1-13-2.8-3.7-7.9-3.4-9.7.6.8.3,1.6.4,2.3.8,2.6,1.1,3.8,3.3,3.6,5.9-.3,2.9-1.9,4.8-5,5-2.5.2-5.1-.3-8.2-.6,1.5-3,5.5-3.7,4.2-6.8-4.1-.8-7.8-1.5-11.4-2.4-1-.3-2.3-1-2.8-1.8-5.4-8-4.8-20.3,2.8-27.4,1-.9,2.4-1.3,4-2.1,1.3,7.7,3.8,13.7,11.7,15.1,3.5.6,6.4-.9,7.6-3.5-2.3-1.1-4.8-2-5.4-5-1-5.1,3-10.2,8.3-10.5,4.6-.3,11.4,3.7,12.6,7.4-1.5.6-3.1,1-4.5,1.9-2,1.2-2.3,3.9-1,5.6,1.3,1.7,3.2,1.7,5.2,0,2.1-1.7,4.3-1.9,5.8.3,1.6,2.4,3,5.2,3.4,8,.8,5.7-.9,11.2-2.9,16.6-.4,1-1.4,1.7-2.6,3.2-.2-1.6-.4-2.1-.3-2.7.7-4.3-.7-7.8-3.1-11.2-3.2-4.4-9-4.2-12.5-8.5-1.2,6.4,1.9,12.7,7.4,15.9,2.2,1.3,4,2.8,4.5,5.2,1.3,5.9.8,11.7-2.1,17.2-.3.5-.8.8-1.2,1.2-7.4-3-10.4-2.3-11.2,2.5,4.2,1.7,4.9,3.2,4.3,7.9-.6,4.9-.2,9.7,1.8,14.3.4,1,.7,2.1,1.2,3.6-1.6,0-2.7.1-3.7,0-11.4-1.1-16.7,7.7-15.7,17.3.2,1.9.7,3.5,3,3.7,3.4-2-.4-3.5-.3-5.5.7-2.2,1.6-4.5,4.6-4.8,3.4,7.4,5,8.7,9.2,7,0-1.1-.1-2.3-.2-3.3,3-2.3,5.1-2.2,7.6.4,1.6,1.7,3,3.7,4.3,5.7,8.4,12.7,18.5,23.3,33.4,28.3l-3.9-6.4c-.7.1-1,.3-1.1.2-.4-.2-.9-.4-1.3-.6-4.8-2.5-8.8-5.9-12.2-10.1-7.9-9.8-13.9-20.7-16.1-33.2-2.1-11.7,1.5-22.4,6.2-32.9,4.5-9.9,11.8-16.7,21.3-21.4,3.5-1.7,7.2-3.3,11.4-5.1-1.6-1.2-2.9-2.4-4.4-3.1Z"/>
        <path class="st0" d="M212.9,205.9c-7.6,1.3-13.5-3.6-20.1-7,0,3.2,3.2,5.3,1.5,8.8-4.3-4.6-8.5-8.7-8-16.1-1.9.6-3.3,1.1-5,1.7-2.8-2.5-4-7.4-9.5-8.6.3,2.2.3,3.8.7,5.3,2.7,7.9,7.3,14.2,15.4,17.5,1,.4,1.8,1.4,2.6,2.1-.2.4-.5.8-.7,1.2-2.9-1.2-5.7-2.5-8.6-3.6-10.2-3.8-16.7-10.7-19.1-21.5-.7-3.2-2-6.5-5.5-8.3-2.9,4.4,0,9.2-1.5,13.7-8.3-8.9-14.1-18.7-14.2-32.2-2.4,1.6-4.1,2.7-5.7,3.8-2.8-4.8-1.7-16.8,1.2-19.7,1-1,2.5-1.7,3.7-2.5.3.2.5.4.8.7,0,1.4,0,2.7.1,4.1.3,3.8,3,6.6,6.8,7,4.5.5,7.2-1.2,8.5-5.2,1.7-5.5-2.1-10.8-8.1-11.1-10.1-.5-17.8,6.3-17.9,16.5-.1,13.4,5.4,24.9,13.3,35.1,3.9,5,9.2,8.8,13.8,13.2,7.6,7.1,16.8,11.1,27.1,12.2,9.5,1,19.1.8,28.5-2.1,1.6-.5,4-1.2,5.1-.5l-4.8-5.2-.5,1Z"/>
      </g>
    </g>
    <g>
      <path class="st0" d="M289.1,57.8c2.4-4,6.1-2.6,9.6-2.5,2.7-5.5,7.3-7.4,13.9-7.5-1.8,5-3.3,9.2-4.9,13.3-2.9,7.8-5.9,15.5-8.7,23.3-1,2.8-3.1,3.6-5.7,3.7-10.9.1-21.8.4-32.7.3-9.5,0-19-.5-28.5-.7-2.3,0-4-.7-4.9-2.9-4.4-11.6-8.9-23.1-13.3-34.7-.2-.5,0-1,0-1.9,6.4-.7,10.3,2.5,13.3,7.3,3.2,0,6.5-1.2,9.1,2.4-.4.2-.8.5-1.2.5-3.2.4-5,2.4-5.4,5.3-.4,2.9.4,5.5,2.9,7.6,6.5,5.3,15.1,4.2,20.6.6,3.1-2,4.6-5.9,3.9-9.2-.9-4-3.4-6.3-7.6-7-.9-.2-1.8-.3-2.9-.5.1-5.7,5.4-3.9,8.4-6.2,0-1.6,0-3.4,0-5.3,0-4.1,2-7.3,5-9.9,2-1.7,3.8-1.7,5.8.2,2.8,2.8,4.8,5.9,4.8,10,0,1.7,0,3.5,0,5.4,4,.9,9.2,0,9.7,6.6-1.1.2-1.9.4-2.8.4-4.2-.4-7.1,1.2-8.4,4.7-1.5,3.8-.4,8,2.7,10.3,4.9,3.6,14.1,3.9,19.5.7,3.1-1.8,4.9-4.4,4.5-8-.3-3.4-2.7-4.8-5.8-5.3-.2,0-.4-.4-.9-1Z"/>
      <path class="st0" d="M275.4,99.5c-12.1,0-24.2,0-36.3,0-3.1,0-6.2.3-9.4.4-2.3,0-4.3-.7-4.3-3.3,0-2.7,2.1-3.1,4.3-3.3.3,0,.5,0,.8,0,21.7,0,43.5,0,65.2,0,2.4,0,4.5.7,4.5,3.6,0,2.7-2.4,3.1-4.4,3.1-6.8,0-13.6,0-20.4,0,0-.1,0-.3,0-.4Z"/>
    </g>
    <g>
      <g>
        <polygon class="st0" points="208.9 219.2 187.9 224.7 200.9 232.5 191.1 244.8 210.9 242.5 208.9 219.2"/>
        <polygon class="st0" points="205.8 238.5 210.9 242.5 210.4 237.3 205.8 238.5"/>
      </g>
      <g>
        <polygon class="st0" points="317.5 219.2 338.6 224.7 325.5 232.5 335.3 244.8 315.5 242.5 317.5 219.2"/>
        <polygon class="st0" points="320.7 238.5 315.5 242.5 316 237.3 320.7 238.5"/>
      </g>
      <path class="st0" d="M205.8,238.5v-23.3c37.4-10.5,77.2-10.5,114.6,0v23.3c-37.4-10.5-77.2-10.5-114.6,0Z"/>
      <g>
        <path class="st1" d="M242.6,222.4c0,.4-.5,2-.6,2.4h-7.4v-.5c1.3-.1,1.4-.2,1.4-1.4v-5.4c0-1.2-.2-1.3-1.1-1.4v-.5h4.6c1.5,0,2,0,2.2,0,0,.3,0,1.4.1,2.3h-.6c-.1-.4-.4-1-.6-1.2-.3-.3-.4-.4-1.2-.4h-.9c-.5,0-.6,0-.6.5v3h1.4c.8,0,.9-.2,1.2-1.2h.6v3.2h-.6c-.2-1.1-.3-1.2-1.2-1.2h-1.4v2.4c0,1,0,1.3.9,1.3h1c.8,0,1,0,1.3-.5.4-.4.6-.9.9-1.4h.5Z"/>
        <path class="st1" d="M249,217.9c-.3-.9-.7-1.9-2-1.9s-1.4.6-1.4,1.4.5,1.2,1.8,1.9c1.5.8,2.5,1.5,2.5,2.9s-1.4,2.9-3.4,2.9-1.7-.2-2.4-.4c0-.3-.3-1.8-.4-2.5h.6c.3.8,1.1,2.3,2.5,2.3s1.4-.5,1.4-1.4-.5-1.3-1.7-1.9c-1.5-.8-2.4-1.5-2.4-3s1.2-2.7,3.3-2.7,1.7.2,2,.3c0,.5.2,1.3.3,2.2h-.5Z"/>
        <path class="st1" d="M258.8,218c-.2-.7-.5-1.2-.6-1.4-.3-.3-.4-.4-1.2-.4h-.9v6.7c0,1.2.1,1.3,1.4,1.4v.5h-4.7v-.5c1.2,0,1.3-.2,1.3-1.4v-6.7h-.9c-.8,0-1,.1-1.3.5-.2.3-.4.8-.6,1.3h-.5c0-1,.2-2.1.2-2.8h.4c.2.3.4.4.8.4h5.7c.4,0,.6,0,.8-.4h.4c0,.6,0,1.8.1,2.8h-.5Z"/>
        <path class="st1" d="M260.6,225c-.7,0-1.2-.5-1.2-1.2s.5-1.2,1.2-1.2,1.2.5,1.2,1.2-.5,1.2-1.2,1.2Z"/>
        <path class="st1" d="M269.6,222.4c-.2.8-.5,1.8-.7,2.4h-6v-.4c.8-.8,1.7-1.6,2.4-2.5,1.1-1.3,1.6-2.3,1.6-3.4s-.5-1.7-1.5-1.7c-1,0-1.5.6-2,1.3l-.4-.4,1-1.4c.5-.6,1.3-.9,2.3-.9,1.5,0,2.7,1,2.7,2.6s-.5,1.9-2,3.3c-.6.6-1.4,1.3-1.9,1.8h2.4c.9,0,1.1,0,1.7-1l.5.2Z"/>
        <path class="st1" d="M274.2,215.4c2.5,0,3.3,2.6,3.3,4.8s-.8,4.8-3.3,4.8-3.4-2.6-3.4-4.8.9-4.8,3.4-4.8ZM274.1,216c-1,0-1.2,2.1-1.2,4.1s.3,4.3,1.3,4.3,1.2-2.1,1.2-4.2-.3-4.1-1.3-4.1Z"/>
        <path class="st1" d="M285.3,222.4c-.2.8-.5,1.8-.7,2.4h-6v-.4c.8-.8,1.7-1.6,2.4-2.5,1.1-1.3,1.6-2.3,1.6-3.4s-.5-1.7-1.5-1.7c-1,0-1.5.6-2,1.3l-.4-.4,1-1.4c.5-.6,1.3-.9,2.3-.9,1.5,0,2.7,1,2.7,2.6s-.5,1.9-2,3.3c-.6.6-1.4,1.3-1.9,1.8h2.4c.9,0,1.1,0,1.7-1l.5.2Z"/>
        <path class="st1" d="M286.5,217.3l.7-1c.4-.5,1.1-1,2.1-1,1.5,0,2.4.9,2.4,2s-.3.8-.5,1.1c-.3.2-.6.4-1.1.7,1.5.3,2.4,1.2,2.4,2.3,0,2.4-3.2,3.5-4.1,3.5s-1.4-.2-1.7-.5c-.3-.2-.3-.4-.3-.6s.2-.5.4-.7c.2-.1.4-.2.6,0,.4.3,1.1,1,2,1s1.3-.6,1.3-2-1-1.9-1.8-1.9-.6,0-.8.1v-.5c1.1-.4,2-1,2-1.9s-.6-1.3-1.3-1.3-1.3.4-1.8,1.1l-.4-.4Z"/>
      </g>
    </g>
    <path class="st0" d="M279.2,233.2c-5,3.7-10.4,7.1-16,10.1-5.6-3-10.9-6.4-15.9-10.1-5.1.4-10.2.9-15.3,1.6,8.7,7.6,18.4,14.1,28.8,19.4l2.4,1.2,2.4-1.2c10.4-5.3,20.1-11.8,28.9-19.5-5.1-.7-10.2-1.2-15.3-1.5ZM340.8,132.8c-9.4-7.3-17.7-15.7-24.7-25.2l-1.6-2.2h-103.1c0,0-1.6,2.2-1.6,2.2-6.9,9.2-15,17.4-24,24.6l-2.3,1.8.2,2.9c1.9,24.5,10.1,48.2,23.9,68.5,1.4,2,2.8,4,4.3,6,4-.9,7.9-1.7,11.9-2.4-16.2-19.8-26.6-44.2-29.2-70.1,8.2-6.7,15.5-14.3,22-22.6h92.4c6.7,8.5,14.3,16.3,22.8,23.1-2.6,25.6-13,49.8-29,69.4,4,.7,8,1.5,12,2.4,1.4-1.8,2.7-3.7,4-5.6,13.8-20.2,22.1-43.8,24-68.2l.2-2.9-2.3-1.8Z"/>
    <polygon class="st0" points="235.7 195.7 238.2 193.4 237.9 196.8 241.2 197.3 238.5 199.2 240.1 202.1 236.9 201.1 235.7 204.2 234.4 201.1 231.2 202.1 232.9 199.2 230.1 197.3 233.5 196.8 233.2 193.4 235.7 195.7"/>
    <polygon class="st0" points="262.8 192.9 265.3 190.6 265 194 268.3 194.5 265.6 196.4 267.2 199.3 264 198.3 262.8 201.5 261.5 198.3 258.3 199.3 260 196.4 257.2 194.5 260.6 194 260.3 190.6 262.8 192.9"/>
    <polygon class="st0" points="288.5 195.7 291 193.4 290.7 196.8 294.1 197.3 291.3 199.2 293 202.1 289.7 201.1 288.5 204.2 287.3 201.1 284 202.1 285.7 199.2 282.9 197.3 286.3 196.8 286 193.4 288.5 195.7"/>
    <path class="st0" d="M289.6,133.9c-5.2.7-6.5,1.4-9.2,8.3-2.1,5.1-12.7,30.9-16.5,40.5h-2.5c-4.5-12.4-11.2-30.4-15.6-41.9-2.2-5.7-3.5-6.5-8.2-6.9v-2.2h19.6v2.2c-5.7.6-6,1.5-4.9,4.4,1.9,5.6,7.6,21,12.4,33.8,4.1-9.9,9.2-22.5,12.8-32.2,1.7-4.5.8-5.2-5.5-5.9v-2.2h17.7v2.2Z"/>
  </g>
  <g>
    <path class="st0" d="M76.3,268.6c.9.9,1.4,2.1,1.4,3.6s-.3,2.5-.8,3.7l-18.6,43.7-.8.4-18.4-51.3h6.2l15.2,43.1,15.5-35.8c.5-1.2.8-2.5.8-3.8s-.4-2.3-1.1-3.1l.6-.4Z"/>
    <path class="st0" d="M84.3,275c-.6-.6-.9-1.3-.9-2.2s.3-1.6.9-2.2c.6-.6,1.3-.9,2.2-.9s1.6.3,2.2.9c.6.6.9,1.3.9,2.2s-.3,1.6-.9,2.2c-.6.6-1.3.9-2.2.9s-1.6-.3-2.2-.9ZM90.2,319.6c-2,0-3.5-.4-4.6-1.3-1-.9-1.6-1.7-1.6-2.6v-1.2c0,0,0-31.2,0-31.2h5.1v31.2c0,1.4.3,2.5.8,3.2.6.8,1.1,1.2,1.6,1.2h.9c0,.1,2.3.1,2.3.1v.6h-4.4Z"/>
    <path class="st0" d="M113.8,283.5c-3.4,0-6.3,1.7-8.6,5s-3.5,7.9-3.5,13.7,1.1,10.1,3.2,13,4.9,4.2,8.3,4.2,8.2-.7,11.5-2.2l.2.5c-3.4,1.5-7.5,2.3-12.1,2.3s-8.4-1.5-11.5-4.4c-3.1-2.9-4.6-7.4-4.6-13.5s1.6-10.8,4.8-14.1c3.2-3.3,7.3-5,12.2-5s5.3.6,7.7,1.9c2.4,1.3,4.1,3.2,5.2,5.8h-4.7c-.7-2.4-1.8-4.2-3.3-5.3-1.5-1.2-3.1-1.7-4.9-1.7Z"/>
    <path class="st0" d="M136,301.8c0,6,1.1,10.4,3.2,13.3s4.9,4.2,8.3,4.2,9.2-.7,13-2.2l.2.5c-3.9,1.5-8.3,2.3-13.1,2.3s-8.8-1.5-11.9-4.4c-3.1-2.9-4.6-7.4-4.6-13.5s1.6-10.8,4.8-14.1c3.2-3.3,7.3-5,12.2-5s7.3,1.2,10,3.6c2.7,2.4,4.1,5.9,4.1,10.6v.7h-26c-.1,1.3-.2,2.7-.2,4.1ZM154.6,286.8c-1.7-2.2-4-3.3-6.8-3.3s-5.2,1.2-7.4,3.6c-2.2,2.4-3.5,5.8-4.1,10h21c0-4.7-.9-8.1-2.7-10.3Z"/>
    <path class="st0" d="M179.2,286.3v-1.5c-2.2.9-4.2,2.6-6,5.3-1.8,2.6-2.7,5.1-2.8,7.5v22.1h-5.1v-36.4h5.1v11.6c.8-2.8,2.3-5.5,4.4-8,2.2-2.5,4.7-3.8,7.4-3.9h.3c1,0,1.8.3,2.4,1,.7.7,1,1.5,1,2.4s-.3,1.8-1,2.4c-.7.6-1.5.9-2.4.9s-1.8-.3-2.4-.9c-.6-.6-.9-1.4-.9-2.4Z"/>
    <path class="st0" d="M205.8,319.9c-5.1,0-9.3-1.5-12.5-4.4-3.2-2.9-4.8-7.4-4.8-13.5s1.7-10.8,5-14.1c3.3-3.3,7.5-5,12.7-5s9.3,1.5,12.5,4.4c3.2,2.9,4.8,7.4,4.8,13.5s-1.7,10.8-5,14.1c-3.3,3.3-7.5,5-12.7,5ZM206.2,283.5c-3.7,0-6.7,1.6-9.2,4.9-2.4,3.3-3.6,7.8-3.6,13.7s1.1,10.2,3.3,13,5.2,4.2,8.9,4.2,6.7-1.6,9.2-4.9c2.4-3.3,3.6-7.8,3.6-13.7s-1.1-10.2-3.3-13-5.2-4.2-8.9-4.2Z"/>
    <path class="st0" d="M236,332.6c-1.6,3.4-3.5,5.2-5.8,5.2s-2.2-.2-3.6-.5v-.6c1.1.3,2.1.4,3,.4,2.5,0,4.4-1.5,5.7-4.5l6.1-13h0l-13.5-36.4h5.1l11.3,30.4,11.1-23.1c.6-1,.9-2.2.9-3.6s-.4-2.5-1.2-3.2l.4-.4c.2,0,.4.4.8.9.3.5.5.9.6,1.3,0,.4.1.8.1,1.1,0,1.3-.3,2.6-.9,4l-14,29.1-6.1,13Z"/>
    <path class="st0" d="M286.4,269.2c5.6-.4,10.6-.6,14.9-.6,12,0,18,4,18,12s-.8,6.4-2.5,9.1c-1.6,2.7-4.5,4.4-8.5,5.3l14.6,24.5h-6.8l-14.3-24.1h-9.4v24.1h-6v-50.4ZM301.3,269.4c-2.8,0-5.8.2-8.9.5v24.9h10.8c6.8-.3,10.3-5,10.3-14s-1-6.5-3.1-8.5c-2-2-5.1-2.9-9.1-2.9Z"/>
    <path class="st0" d="M332.9,301.8c0,6,1.1,10.4,3.2,13.3s4.9,4.2,8.3,4.2,9.2-.7,13-2.2l.2.5c-3.9,1.5-8.3,2.3-13.1,2.3s-8.8-1.5-11.9-4.4c-3.1-2.9-4.6-7.4-4.6-13.5s1.6-10.8,4.8-14.1c3.2-3.3,7.3-5,12.2-5s7.3,1.2,10,3.6c2.7,2.4,4.1,5.9,4.1,10.6v.7h-26c-.1,1.3-.2,2.7-.2,4.1ZM351.5,286.8c-1.7-2.2-4-3.3-6.8-3.3s-5.2,1.2-7.4,3.6c-2.2,2.4-3.5,5.8-4.1,10h21c0-4.7-.9-8.1-2.7-10.3Z"/>
    <path class="st0" d="M394.4,319.6c-3.3,0-5.6-.6-6.8-1.9-1.1-1.1-1.7-2-1.7-2.8v-1.5c-2.4,4.3-6.2,6.5-11.4,6.5s-9.6-2.8-10.4-8.3c0-.6-.1-1.2-.1-1.8s0-1.3.3-2c.2-.7.8-1.5,1.7-2.4,1.8-1.7,5.9-2.8,12.2-3.2,1.6-.1,3-.2,4.3-.2s2.5,0,3.6.1v-12.1c0,0,0-.3,0-.7,0-.4,0-.9-.3-1.6-.3-.7-.6-1.3-1.1-1.9-.4-.6-1.2-1.2-2.3-1.6s-2.6-.7-4.4-.7-3.9.3-6.3,1c-2.4.7-4.2,1.3-5.3,1.9l-.3-.5c4.3-2,8.7-3,13.2-3s8.3.9,9.9,2.7c1.3,1.4,1.9,2.9,1.9,4.4v24.4c0,1.4.3,2.5.8,3.2.6.8,1.1,1.2,1.7,1.2h.8c0,.1,2.3.1,2.3.1v.6h-2.3ZM375.7,319.3c2.6,0,4.9-.9,7-2.7,2.1-1.8,3.2-3.5,3.3-5.1v-8.8c-1.3,0-2.6-.1-4-.1s-2.7,0-4,.2c-3.7.4-6.1,1.3-7.2,2.5-1.1,1.2-1.7,2.9-1.7,5s0,.8,0,1.3c.4,5.1,2.6,7.7,6.5,7.7Z"/>
    <path class="st0" d="M411.4,319.6c-4.3,0-7-1.1-8.1-3.3s-.4-.9-.4-1.3v-49.9h5.1v49.4c0,1.4.3,2.5.8,3.2.6.8,1.1,1.2,1.7,1.2h.8c0,.1,2.3.1,2.3.1v.6h-2.3Z"/>
    <path class="st0" d="M419.8,283.8v-.6h1.5v-7.3h5.1v7.3h11.1v.6h-11.1v26.5c0,3.2.4,5.4,1.1,6.8.7,1.4,2.2,2.1,4.4,2.1s4.6-.5,6.9-1.4l.2.6c-2.4.9-5.2,1.4-8.3,1.4s-5.5-.6-7-1.9c-1.6-1.3-2.3-3.8-2.3-7.7v-26.4h-1.5Z"/>
    <path class="st0" d="M452,332.6c-1.6,3.4-3.5,5.2-5.8,5.2s-2.2-.2-3.6-.5v-.6c1.1.3,2.1.4,3,.4,2.5,0,4.4-1.5,5.7-4.5l6.1-13h0l-13.5-36.4h5.1l11.3,30.4,11.1-23.1c.6-1,.9-2.2.9-3.6s-.4-2.5-1.2-3.2l.4-.4c.2,0,.4.4.8.9.3.5.5.9.6,1.3,0,.4.1.8.1,1.1,0,1.3-.3,2.6-.9,4l-14,29.1-6.1,13Z"/>
  </g>
</svg>