<?xml version="1.0" encoding="UTF-8"?>
<svg id="Layer_1" xmlns="http://www.w3.org/2000/svg" version="1.1" viewBox="0 0 870 218.9">
  <!-- Generator: Adobe Illustrator 29.1.0, SVG Export Plug-In . SVG Version: 2.1.0 Build 142)  -->
  <defs>
    <style>
      .st0 {
        fill: #fff;
      }

      .st1 {
        fill: #1b3942;
      }
    </style>
  </defs>
  <g>
    <g>
      <g>
        <path class="st0" d="M170.7,74c1-.5,2.1-.7,3.3-1,0-.7-.2-1.4-.3-2-.6-4.3,3.5-7.8,7.5-6.5,1.9.6,3.2,2.7,2.6,4.6-.2.6-1,1.2-1.6,1.6-.3.2-1.3-.3-1.4-.6-.2-.6,0-1.4.2-2,0-.4.4-.7.7-1.1-1-1.2-2-.9-3.1-.4-1.5.9-1.8,2.3-1.6,3.9.4,2.9,4.2,5.6,7.5,5.1,0-.5,0-1.1.2-1.7.7-2.8,1.1-5.8,2.4-8.4,7.5-15,25.6-17.2,35.6-9.7,3.9,2.9,6.2,2.7,10,0,0,0,.3,0,.4,0,.7,2.8-.4,4.7-3.1,5.2-3.3.6-3.4,1-2,3.9,1.4,2.8,3,5.5,3.2,8.8.1,3.6.4,7.3.5,10.9,0,1.7.5,3.2,2.4,3.9.6-.5,1.1-.9,1.7-1.4,1.6.6,1.7,1.6.8,2.8-1.3,1.8-3.9,2.1-5.8.7-.7-.5-1.3-1.1-2.2-1.8-2.3,3.4-4.2,6.9-8.3,7.9-3.7.9-7.5,1.5-11.1-.8.7-.4,1.5-.6,2.2-.7,2.8-.3,5.6-.8,7.7-2.6,6.2-5.1,10.7-15.6,7.5-24.4-1.6-4.5-4-8.1-8.7-9.8-.6-.2-1.2-.3-1.8-.4,0,.2-.2.3-.3.5.4.5.8,1,1.3,1.4,2.1,1.5,3.5,3.5,4.7,5.8,3.8,7.3,2.9,14.8-2.6,20.9-3.2,3.6-7,6.1-12.1,5.6-3.1-.3-5.8-1.8-7.1-4.7-1.3-2.9-.5-5.7,1.3-8.2,1.8-2.3,5-2.1,6.1.4-.5.2-1,.3-1.5.5-1.6.7-2.4,2.1-2.3,3.7.2,1.9,1.2,3,3.2,3.2,1.6.1,3.2-.2,5.2-.4-.9-1.9-3.4-2.3-2.6-4.3,2.6-.5,4.9-.9,7.2-1.5.7-.2,1.4-.6,1.8-1.1,3.4-5.1,3-12.8-1.7-17.2-.6-.6-1.5-.8-2.5-1.3-.8,4.8-2.4,8.6-7.3,9.5-2.2.4-4-.6-4.8-2.2,1.5-.7,3-1.3,3.4-3.2.6-3.2-1.9-6.4-5.3-6.6-2.9-.2-7.2,2.3-7.9,4.7.9.4,2,.7,2.8,1.2,1.2.8,1.5,2.5.6,3.5-.8,1.1-2,1-3.3,0-1.3-1.1-2.7-1.2-3.6.2-1,1.5-1.9,3.3-2.1,5-.5,3.6.5,7.1,1.9,10.4.2.6.9,1.1,1.6,2,.1-1,.3-1.3.2-1.7-.5-2.7.4-4.9,2-7.1,2-2.8,5.7-2.6,7.9-5.3.7,4.1-1.2,8-4.7,10-1.4.8-2.5,1.8-2.8,3.3-.8,3.7-.5,7.4,1.3,10.8.2.3.5.5.7.7,4.6-1.9,6.5-1.4,7.1,1.6-2.6,1.1-3.1,2-2.7,5,.4,3.1.1,6.1-1.2,9-.3.6-.4,1.3-.8,2.3,1,0,1.7,0,2.3,0,7.2-.7,10.5,4.8,9.9,10.9-.1,1.2-.5,2.2-1.9,2.3-2.1-1.3.2-2.2.2-3.5-.5-1.4-1-2.8-2.9-3-2.1,4.7-3.1,5.5-5.8,4.4,0-.7,0-1.4.1-2.1-1.9-1.4-3.2-1.4-4.8.3-1,1.1-1.9,2.3-2.7,3.6-5.3,8-11.7,14.7-21.1,17.8l2.5-4c.4,0,.6.2.7.1.3,0,.5-.2.8-.4,3-1.6,5.5-3.7,7.7-6.4,5-6.2,8.8-13,10.2-20.9,1.3-7.3-.9-14.1-3.9-20.8-2.8-6.2-7.4-10.5-13.4-13.5-2.2-1.1-4.5-2-7.2-3.2,1-.7,1.8-1.5,2.7-2Z"/>
        <path class="st0" d="M169.8,148.5c4.8.8,8.5-2.3,12.7-4.4,0,2-2,3.3-.9,5.6,2.7-2.9,5.4-5.5,5-10.1,1.2.4,2.1.7,3.2,1,1.8-1.6,2.5-4.6,6-5.5-.2,1.4-.2,2.4-.5,3.3-1.7,5-4.6,9-9.7,11-.6.3-1.1.9-1.7,1.3.1.2.3.5.4.7,1.8-.8,3.6-1.6,5.4-2.2,6.4-2.4,10.5-6.8,12-13.6.5-2,1.3-4.1,3.5-5.2,1.8,2.8,0,5.8.9,8.6,5.2-5.6,8.9-11.8,9-20.3,1.5,1,2.6,1.7,3.6,2.4,1.8-3,1.1-10.6-.8-12.4-.7-.7-1.6-1.1-2.4-1.6-.2.1-.3.3-.5.4,0,.9,0,1.7,0,2.6-.2,2.4-1.9,4.1-4.3,4.4-2.8.3-4.6-.7-5.3-3.3-1.1-3.5,1.3-6.8,5.1-7,6.4-.3,11.2,4,11.2,10.4,0,8.4-3.4,15.7-8.4,22.1-2.4,3.1-5.8,5.6-8.7,8.3-4.8,4.5-10.6,7-17,7.7-6,.6-12,.5-17.9-1.3-1-.3-2.5-.8-3.2-.3l3-3.3.3.6Z"/>
      </g>
      <g>
        <path class="st0" d="M105,74c-1-.5-2.1-.7-3.3-1,0-.7.2-1.4.3-2,.6-4.3-3.5-7.8-7.5-6.5-1.9.6-3.2,2.7-2.6,4.6.2.6,1,1.2,1.6,1.6.3.2,1.3-.3,1.4-.6.2-.6,0-1.4-.2-2,0-.4-.4-.7-.7-1.1,1-1.2,2-.9,3.1-.4,1.5.9,1.8,2.3,1.6,3.9-.4,2.9-4.2,5.6-7.5,5.1,0-.5,0-1.1-.2-1.7-.7-2.8-1.1-5.8-2.4-8.4-7.5-15-25.6-17.2-35.6-9.7-3.9,2.9-6.2,2.7-10,0,0,0-.3,0-.4,0-.7,2.8.4,4.7,3.1,5.2,3.3.6,3.4,1,2,3.9-1.4,2.8-3,5.5-3.2,8.8-.1,3.6-.4,7.3-.5,10.9,0,1.7-.5,3.2-2.4,3.9-.6-.5-1.1-.9-1.7-1.4-1.6.6-1.7,1.6-.8,2.8,1.3,1.8,3.9,2.1,5.8.7.7-.5,1.3-1.1,2.2-1.8,2.3,3.4,4.2,6.9,8.3,7.9,3.7.9,7.5,1.5,11.1-.8-.7-.4-1.5-.6-2.2-.7-2.8-.3-5.6-.8-7.7-2.6-6.2-5.1-10.7-15.6-7.5-24.4,1.6-4.5,4-8.1,8.7-9.8.6-.2,1.2-.3,1.8-.4,0,.2.2.3.3.5-.4.5-.8,1-1.3,1.4-2.1,1.5-3.5,3.5-4.7,5.8-3.8,7.3-2.9,14.8,2.6,20.9,3.2,3.6,7,6.1,12.1,5.6,3.1-.3,5.8-1.8,7.1-4.7,1.3-2.9.5-5.7-1.3-8.2-1.8-2.3-5-2.1-6.1.4.5.2,1,.3,1.5.5,1.6.7,2.4,2.1,2.3,3.7-.2,1.9-1.2,3-3.2,3.2-1.6.1-3.2-.2-5.2-.4.9-1.9,3.4-2.3,2.6-4.3-2.6-.5-4.9-.9-7.2-1.5-.7-.2-1.4-.6-1.8-1.1-3.4-5.1-3-12.8,1.7-17.2.6-.6,1.5-.8,2.5-1.3.8,4.8,2.4,8.6,7.3,9.5,2.2.4,4-.6,4.8-2.2-1.5-.7-3-1.3-3.4-3.2-.6-3.2,1.9-6.4,5.3-6.6,2.9-.2,7.2,2.3,7.9,4.7-.9.4-2,.7-2.8,1.2-1.2.8-1.5,2.5-.6,3.5.8,1.1,2,1,3.3,0,1.3-1.1,2.7-1.2,3.6.2,1,1.5,1.9,3.3,2.1,5,.5,3.6-.5,7.1-1.9,10.4-.2.6-.9,1.1-1.6,2-.1-1-.3-1.3-.2-1.7.5-2.7-.4-4.9-2-7.1-2-2.8-5.7-2.6-7.9-5.3-.7,4.1,1.2,8,4.7,10,1.4.8,2.5,1.8,2.8,3.3.8,3.7.5,7.4-1.3,10.8-.2.3-.5.5-.7.7-4.6-1.9-6.5-1.4-7.1,1.6,2.6,1.1,3.1,2,2.7,5-.4,3.1-.1,6.1,1.2,9,.3.6.4,1.3.8,2.3-1,0-1.7,0-2.3,0-7.2-.7-10.5,4.8-9.9,10.9.1,1.2.5,2.2,1.9,2.3,2.1-1.3-.2-2.2-.2-3.5.5-1.4,1-2.8,2.9-3,2.1,4.7,3.1,5.5,5.8,4.4,0-.7,0-1.4-.1-2.1,1.9-1.4,3.2-1.4,4.8.3,1,1.1,1.9,2.3,2.7,3.6,5.3,8,11.7,14.7,21.1,17.8l-2.5-4c-.4,0-.6.2-.7.1-.3,0-.5-.2-.8-.4-3-1.6-5.5-3.7-7.7-6.4-5-6.2-8.8-13-10.2-20.9-1.3-7.3.9-14.1,3.9-20.8,2.8-6.2,7.4-10.5,13.4-13.5,2.2-1.1,4.5-2,7.2-3.2-1-.7-1.8-1.5-2.7-2Z"/>
        <path class="st0" d="M105.9,148.5c-4.8.8-8.5-2.3-12.7-4.4,0,2,2,3.3.9,5.6-2.7-2.9-5.4-5.5-5-10.1-1.2.4-2.1.7-3.2,1-1.8-1.6-2.5-4.6-6-5.5.2,1.4.2,2.4.5,3.3,1.7,5,4.6,9,9.7,11,.6.3,1.1.9,1.7,1.3-.1.2-.3.5-.4.7-1.8-.8-3.6-1.6-5.4-2.2-6.4-2.4-10.5-6.8-12-13.6-.5-2-1.3-4.1-3.5-5.2-1.8,2.8,0,5.8-.9,8.6-5.2-5.6-8.9-11.8-9-20.3-1.5,1-2.6,1.7-3.6,2.4-1.8-3-1.1-10.6.8-12.4.7-.7,1.6-1.1,2.4-1.6.2.1.3.3.5.4,0,.9,0,1.7,0,2.6.2,2.4,1.9,4.1,4.3,4.4,2.8.3,4.6-.7,5.3-3.3,1.1-3.5-1.3-6.8-5.1-7-6.4-.3-11.2,4-11.2,10.4,0,8.4,3.4,15.7,8.4,22.1,2.4,3.1,5.8,5.6,8.7,8.3,4.8,4.5,10.6,7,17,7.7,6,.6,12,.5,17.9-1.3,1-.3,2.5-.8,3.2-.3l-3-3.3-.3.6Z"/>
      </g>
    </g>
    <g>
      <path class="st0" d="M153.9,55.1c1.5-2.5,3.9-1.7,6-1.6,1.7-3.4,4.6-4.7,8.7-4.7-1.2,3.2-2.1,5.8-3.1,8.4-1.8,4.9-3.7,9.8-5.5,14.7-.6,1.8-1.9,2.3-3.6,2.3-6.9,0-13.7.2-20.6.2-6,0-12-.3-18-.4-1.4,0-2.5-.4-3.1-1.8-2.8-7.3-5.6-14.6-8.4-21.8-.1-.3,0-.7,0-1.2,4-.5,6.5,1.6,8.4,4.6,2,0,4.1-.8,5.8,1.5-.3.1-.5.3-.7.3-2,.2-3.1,1.5-3.4,3.3-.3,1.8.3,3.5,1.9,4.8,4.1,3.4,9.5,2.6,13,.4,1.9-1.2,2.9-3.7,2.4-5.8-.6-2.5-2.2-4-4.8-4.4-.6,0-1.1-.2-1.8-.3,0-3.6,3.4-2.5,5.3-3.9,0-1,0-2.2,0-3.3,0-2.6,1.2-4.6,3.1-6.2,1.2-1.1,2.4-1.1,3.6.1,1.8,1.8,3,3.7,3,6.3,0,1.1,0,2.2,0,3.4,2.5.6,5.8,0,6.1,4.2-.7,0-1.2.3-1.8.2-2.6-.2-4.5.7-5.3,2.9-.9,2.4-.3,5,1.7,6.5,3.1,2.3,8.9,2.5,12.3.5,1.9-1.1,3.1-2.8,2.8-5.1-.2-2.1-1.7-3-3.7-3.4-.1,0-.2-.2-.6-.6Z"/>
      <path class="st0" d="M145.3,81.4c-7.6,0-15.2,0-22.9,0-2,0-3.9.2-5.9.2-1.4,0-2.7-.4-2.7-2.1,0-1.7,1.3-2,2.7-2.1.2,0,.3,0,.5,0,13.7,0,27.4,0,41.1,0,1.5,0,2.8.5,2.8,2.2,0,1.7-1.5,1.9-2.8,2-4.3,0-8.6,0-12.9,0,0,0,0-.2,0-.3Z"/>
    </g>
    <g>
      <g>
        <polygon class="st0" points="103.4 156.8 90.1 160.3 98.3 165.2 92.2 173 104.6 171.5 103.4 156.8"/>
        <polygon class="st0" points="101.4 169 104.6 171.5 104.3 168.2 101.4 169"/>
      </g>
      <g>
        <polygon class="st0" points="171.8 156.8 185.1 160.3 176.8 165.2 183 173 170.5 171.5 171.8 156.8"/>
        <polygon class="st0" points="173.8 169 170.5 171.5 170.8 168.2 173.8 169"/>
      </g>
      <path class="st0" d="M101.4,169v-14.7c23.6-6.6,48.7-6.6,72.2,0v14.7c-23.6-6.6-48.7-6.6-72.2,0Z"/>
      <g>
        <path class="st1" d="M124.6,158.8c0,.2-.3,1.3-.4,1.5h-4.6v-.3c.8,0,.9-.1.9-.9v-3.4c0-.8-.1-.8-.7-.9v-.3h2.9c.9,0,1.3,0,1.4,0,0,.2,0,.9,0,1.4h-.3c0-.3-.2-.6-.4-.8-.2-.2-.3-.2-.7-.2h-.6c-.3,0-.4,0-.4.3v1.9h.9c.5,0,.6-.1.7-.8h.3v2h-.3c-.1-.7-.2-.8-.7-.8h-.9v1.5c0,.6,0,.8.6.8h.6c.5,0,.6,0,.8-.3.2-.3.4-.6.5-.9h.3Z"/>
        <path class="st1" d="M128.6,156c-.2-.6-.4-1.2-1.3-1.2s-.9.4-.9.9.3.8,1.1,1.2c1,.5,1.6.9,1.6,1.8s-.9,1.8-2.2,1.8-1.1-.2-1.5-.3c0-.2-.2-1.1-.3-1.6h.3c.2.5.7,1.5,1.6,1.5s.9-.3.9-.9-.3-.8-1.1-1.2c-.9-.5-1.5-.9-1.5-1.9s.7-1.7,2.1-1.7,1.1.1,1.3.2c0,.3,0,.8.2,1.4h-.3Z"/>
        <path class="st1" d="M134.8,156.1c0-.4-.3-.8-.4-.9-.2-.2-.2-.3-.8-.3h-.6v4.2c0,.8,0,.8.9.9v.3h-3v-.3c.8,0,.8-.1.8-.9v-4.2h-.5c-.5,0-.6,0-.8.3-.1.2-.3.5-.4.9h-.3c0-.7.1-1.4.1-1.8h.3c.1.2.2.2.5.2h3.6c.2,0,.4,0,.5-.2h.3c0,.4,0,1.2,0,1.7h-.3Z"/>
        <path class="st1" d="M135.9,160.4c-.4,0-.7-.3-.7-.8s.3-.7.7-.7.7.3.7.7-.3.8-.7.8Z"/>
        <path class="st1" d="M141.6,158.8c-.1.5-.3,1.1-.4,1.5h-3.8v-.3c.5-.5,1.1-1,1.5-1.6.7-.8,1-1.5,1-2.1s-.3-1.1-1-1.1c-.6,0-1,.4-1.3.8l-.3-.2.6-.9c.3-.4.8-.6,1.4-.6.9,0,1.7.6,1.7,1.7s-.3,1.2-1.3,2.1c-.4.4-.9.8-1.2,1.2h1.5c.6,0,.7,0,1.1-.6h.3Z"/>
        <path class="st1" d="M144.5,154.4c1.6,0,2.1,1.7,2.1,3s-.5,3-2.1,3-2.1-1.7-2.1-3,.6-3,2.1-3ZM144.5,154.8c-.6,0-.8,1.3-.8,2.6s.2,2.7.8,2.7.8-1.3.8-2.7-.2-2.6-.8-2.6Z"/>
        <path class="st1" d="M151.5,158.8c-.1.5-.3,1.1-.4,1.5h-3.8v-.3c.5-.5,1.1-1,1.5-1.6.7-.8,1-1.5,1-2.1s-.3-1.1-1-1.1c-.6,0-1,.4-1.3.8l-.3-.2.6-.9c.3-.4.8-.6,1.4-.6.9,0,1.7.6,1.7,1.7s-.3,1.2-1.3,2.1c-.4.4-.9.8-1.2,1.2h1.5c.6,0,.7,0,1.1-.6h.3Z"/>
        <path class="st1" d="M152.3,155.6l.5-.6c.3-.3.7-.6,1.4-.6,1,0,1.5.6,1.5,1.3s-.2.5-.3.7c-.2.2-.4.3-.7.5.9.2,1.5.8,1.5,1.5,0,1.5-2,2.2-2.6,2.2s-.9-.2-1.1-.3c-.2-.1-.2-.2-.2-.4s.1-.3.3-.4c.1,0,.2-.1.4,0,.3.2.7.6,1.2.6s.8-.4.8-1.3-.6-1.2-1.2-1.2-.4,0-.5,0v-.3c.7-.3,1.3-.6,1.3-1.2s-.4-.8-.8-.8-.8.3-1.1.7l-.2-.2Z"/>
      </g>
    </g>
    <path class="st0" d="M147.7,165.6c-3.2,2.4-6.5,4.5-10.1,6.4-3.5-1.9-6.9-4-10-6.4-3.2.2-6.4.6-9.6,1,5.5,4.8,11.6,8.9,18.1,12.2l1.5.8,1.5-.8c6.6-3.3,12.7-7.5,18.2-12.3-3.2-.4-6.4-.8-9.7-1ZM186.4,102.4c-5.9-4.6-11.1-9.9-15.6-15.9l-1-1.4h-65c0,0-1,1.4-1,1.4-4.3,5.8-9.4,11-15.1,15.5l-1.4,1.1v1.8c1.3,15.4,6.5,30.4,15.2,43.2.9,1.3,1.8,2.5,2.7,3.8,2.5-.6,5-1.1,7.5-1.5-10.2-12.5-16.8-27.8-18.4-44.2,5.1-4.2,9.8-9,13.9-14.2h58.2c4.2,5.4,9,10.3,14.4,14.6-1.7,16.2-8.2,31.4-18.3,43.7,2.5.4,5,.9,7.5,1.5.9-1.2,1.7-2.3,2.5-3.5,8.7-12.7,13.9-27.6,15.1-43v-1.8c.1,0-1.3-1.1-1.3-1.1Z"/>
    <polygon class="st0" points="120.2 142 121.8 140.6 121.6 142.7 123.7 143 122 144.2 123 146 121 145.4 120.2 147.4 119.4 145.4 117.4 146 118.5 144.2 116.7 143 118.8 142.7 118.7 140.6 120.2 142"/>
    <polygon class="st0" points="137.3 140.3 138.9 138.8 138.7 140.9 140.8 141.3 139.1 142.5 140.1 144.3 138.1 143.7 137.3 145.6 136.5 143.7 134.5 144.3 135.6 142.5 133.8 141.3 135.9 140.9 135.7 138.8 137.3 140.3"/>
    <polygon class="st0" points="153.5 142 155.1 140.6 154.9 142.7 157 143 155.3 144.2 156.3 146 154.3 145.4 153.5 147.4 152.7 145.4 150.7 146 151.8 144.2 150 143 152.1 142.7 152 140.6 153.5 142"/>
    <path class="st0" d="M154.2,103c-3.3.4-4.1.9-5.8,5.2-1.3,3.2-8,19.5-10.4,25.5h-1.6c-2.9-7.8-7-19.2-9.8-26.4-1.4-3.6-2.2-4.1-5.1-4.4v-1.4h12.3v1.4c-3.6.4-3.8,1-3.1,2.8,1.2,3.5,4.8,13.2,7.8,21.3,2.6-6.3,5.8-14.2,8.1-20.3,1.1-2.8.5-3.3-3.5-3.7v-1.4h11.2v1.4Z"/>
  </g>
  <g>
    <path class="st0" d="M314.8,66.7c1.2,1.2,1.8,2.8,1.8,4.7s-.3,3.2-1,4.8l-24.3,57-1,.5-23.9-67h8.1l19.8,56.2,20.2-46.7c.7-1.6,1-3.2,1-4.9s-.5-3-1.4-4l.8-.6Z"/>
    <path class="st0" d="M325.3,75c-.8-.8-1.1-1.7-1.1-2.8s.4-2.1,1.1-2.9c.8-.8,1.7-1.2,2.8-1.2s2.1.4,2.9,1.2c.8.8,1.2,1.8,1.2,2.9s-.4,2.1-1.2,2.8c-.8.8-1.8,1.1-2.9,1.1s-2.1-.4-2.8-1.1ZM332.9,133.2c-2.6,0-4.6-.6-5.9-1.7-1.4-1.1-2.1-2.3-2.1-3.4v-1.6c0,0,0-40.7,0-40.7h6.6v40.7c0,1.8.4,3.2,1.1,4.2.7,1,1.4,1.5,2.1,1.6l1.1.2h2.9v.8h-5.8Z"/>
    <path class="st0" d="M363.8,86.1c-4.5,0-8.2,2.2-11.3,6.5-3,4.3-4.5,10.3-4.5,17.9s1.4,13.2,4.1,16.9c2.8,3.7,6.4,5.5,10.9,5.5s10.6-1,15-2.8l.3.7c-4.5,2-9.8,2.9-15.8,2.9s-11-1.9-15-5.7c-4-3.8-6-9.7-6-17.6s2.1-14.1,6.3-18.4c4.2-4.4,9.5-6.6,16-6.6s6.9.8,10,2.5c3.1,1.6,5.3,4.1,6.8,7.5h-6.1c-1-3.1-2.4-5.4-4.3-6.9-1.9-1.5-4.1-2.3-6.4-2.3Z"/>
    <path class="st0" d="M392.7,110c0,7.9,1.4,13.6,4.1,17.3,2.8,3.7,6.4,5.5,10.9,5.5s12-1,16.9-2.8l.3.7c-5.1,2-10.8,2.9-17.1,2.9s-11.5-1.9-15.5-5.7c-4-3.8-6-9.7-6-17.6s2.1-14.1,6.3-18.4c4.2-4.4,9.5-6.6,16-6.6s9.6,1.6,13.1,4.7c3.5,3.1,5.3,7.7,5.3,13.8v.9h-33.9c-.2,1.7-.3,3.5-.3,5.3ZM417,90.4c-2.3-2.9-5.2-4.4-8.8-4.4s-6.8,1.6-9.6,4.7c-2.8,3.2-4.6,7.5-5.4,13.1h27.4c0-6.1-1.2-10.6-3.5-13.5Z"/>
    <path class="st0" d="M449,89.8v-2c-2.8,1.1-5.4,3.4-7.8,6.9-2.3,3.5-3.6,6.7-3.7,9.7v28.8h-6.6v-47.5h6.6v15.1c1-3.7,2.9-7.1,5.8-10.4,2.8-3.3,6.1-5,9.7-5.1h.4c1.3,0,2.3.4,3.2,1.3.9.9,1.3,1.9,1.3,3.2s-.4,2.3-1.3,3.1c-.9.8-1.9,1.2-3.2,1.2s-2.3-.4-3.1-1.2c-.8-.8-1.2-1.9-1.2-3.1Z"/>
    <path class="st0" d="M483.7,133.5c-6.7,0-12.1-1.9-16.3-5.7-4.2-3.8-6.3-9.7-6.3-17.6s2.2-14.1,6.5-18.4c4.3-4.4,9.8-6.6,16.5-6.6s12.1,1.9,16.3,5.7c4.2,3.8,6.3,9.7,6.3,17.6s-2.2,14.1-6.5,18.4c-4.3,4.4-9.8,6.6-16.5,6.6ZM484.3,86.1c-4.8,0-8.8,2.1-12,6.4-3.2,4.3-4.7,10.2-4.7,17.9s1.5,13.3,4.4,17c2.9,3.7,6.8,5.5,11.6,5.5s8.8-2.1,12-6.4c3.2-4.3,4.7-10.2,4.7-17.9s-1.5-13.3-4.4-17c-2.9-3.7-6.8-5.5-11.6-5.5Z"/>
    <path class="st0" d="M523.1,150.2c-2,4.5-4.5,6.7-7.5,6.7s-2.9-.2-4.7-.7v-.8c1.5.4,2.8.6,3.9.6,3.2,0,5.7-2,7.4-5.9l8-17h0l-17.7-47.5h6.6l14.7,39.6,14.5-30.1c.8-1.3,1.1-2.9,1.1-4.7s-.5-3.2-1.5-4.2l.6-.6c.3.1.6.5,1,1.1.4.6.7,1.2.8,1.7,0,.5.1,1,.1,1.4,0,1.7-.4,3.5-1.1,5.2l-18.2,38-8,17Z"/>
    <path class="st0" d="M588.9,67.4c7.3-.5,13.8-.8,19.5-.8,15.6,0,23.5,5.2,23.5,15.7s-1.1,8.4-3.2,11.9c-2.2,3.5-5.9,5.8-11.1,6.9l19,32h-8.8l-18.6-31.4h-12.2v31.4h-7.9v-65.7ZM608.3,67.6c-3.7,0-7.5.2-11.6.7v32.5h14.1c8.9-.4,13.4-6.5,13.4-18.2s-1.3-8.5-4-11.1c-2.7-2.6-6.6-3.8-11.9-3.8Z"/>
    <path class="st0" d="M649.5,110c0,7.9,1.4,13.6,4.1,17.3,2.8,3.7,6.4,5.5,10.9,5.5s12-1,16.9-2.8l.3.7c-5.1,2-10.8,2.9-17.1,2.9s-11.5-1.9-15.5-5.7c-4-3.8-6-9.7-6-17.6s2.1-14.1,6.3-18.4c4.2-4.4,9.5-6.6,16-6.6s9.6,1.6,13.1,4.7c3.5,3.1,5.3,7.7,5.3,13.8v.9h-33.9c-.2,1.7-.3,3.5-.3,5.3ZM673.8,90.4c-2.3-2.9-5.2-4.4-8.8-4.4s-6.8,1.6-9.6,4.7c-2.8,3.2-4.6,7.5-5.4,13.1h27.4c0-6.1-1.2-10.6-3.5-13.5Z"/>
    <path class="st0" d="M729.7,133.2c-4.3,0-7.3-.8-8.8-2.5-1.5-1.4-2.2-2.6-2.2-3.6v-2c-3.1,5.6-8.1,8.5-14.9,8.5s-12.5-3.6-13.6-10.8c-.1-.8-.2-1.5-.2-2.3s.1-1.7.4-2.6c.3-1,1-2,2.2-3.1,2.4-2.3,7.7-3.7,15.9-4.2,2-.2,3.9-.3,5.6-.3s3.3,0,4.7.2v-15.8c-.1,0-.1-.4,0-.9.1-.5,0-1.2-.3-2.1-.3-.9-.8-1.7-1.4-2.5-.6-.8-1.6-1.5-3-2.1s-3.4-.9-5.7-.9-5.1.4-8.2,1.3c-3.1.9-5.4,1.7-6.9,2.5l-.4-.7c5.6-2.6,11.4-3.9,17.2-3.9s10.8,1.2,12.9,3.5c1.6,1.8,2.5,3.8,2.5,5.8v31.8c0,1.8.4,3.2,1.1,4.2.7,1,1.5,1.5,2.2,1.6l1,.2h2.9v.8h-2.9ZM705.3,132.8c3.4,0,6.4-1.2,9.1-3.5,2.7-2.3,4.1-4.5,4.3-6.7v-11.5c-1.7-.1-3.4-.2-5.2-.2s-3.5,0-5.2.3c-4.8.6-7.9,1.6-9.4,3.2-1.5,1.6-2.2,3.8-2.2,6.6s0,1.1,0,1.7c.6,6.7,3.4,10.1,8.5,10.1Z"/>
    <path class="st0" d="M751.8,133.2c-5.6,0-9.1-1.5-10.5-4.4-.3-.6-.5-1.2-.5-1.7V62h6.6v64.4c0,1.8.4,3.2,1.1,4.2.7,1,1.5,1.5,2.2,1.6l1,.2h2.9v.8h-2.9Z"/>
    <path class="st0" d="M762.2,86.4v-.8h2v-9.5h6.6v9.5h14.5v.8h-14.5v34.6c0,4.1.5,7.1,1.4,8.9.9,1.8,2.8,2.8,5.8,2.8s5.9-.6,9-1.8l.3.8c-3.2,1.2-6.8,1.8-10.9,1.8s-7.1-.8-9.2-2.5c-2-1.7-3-5-3-10v-34.5h-2Z"/>
    <path class="st0" d="M804.2,150.2c-2,4.5-4.5,6.7-7.5,6.7s-2.9-.2-4.7-.7v-.8c1.5.4,2.8.6,3.9.6,3.2,0,5.7-2,7.4-5.9l8-17h0l-17.7-47.5h6.6l14.7,39.6,14.5-30.1c.8-1.3,1.1-2.9,1.1-4.7s-.5-3.2-1.5-4.2l.6-.6c.3.1.6.5,1,1.1.4.6.7,1.2.8,1.7,0,.5.1,1,.1,1.4,0,1.7-.4,3.5-1.1,5.2l-18.2,38-8,17Z"/>
  </g>
</svg>